<?xml version="1.0" encoding="UTF-8"?>
<svg xmlns="http://www.w3.org/2000/svg" id="Layer_2" viewBox="0 0 360 43.5">
  <defs>
    <style>.cls-1{fill:#616365;}.cls-2{fill:#ed2939;}</style>
  </defs>
  <g id="Layer_1-2">
    <polygon class="cls-1" points="41.2 13.1 32.1 36.2 28.5 26.3 33.7 13.1 27.5 13.1 24.2 22.5 21 13.1 14.7 13.1 20.1 26.3 16.4 36.2 7.3 13.1 0 13.1 12.7 43.5 19 43.5 24.2 30.1 29.4 43.5 35.8 43.5 48.5 13.1 41.2 13.1"></polygon>
    <path class="cls-1" d="m64.7,37.7c2.3,0,4.1-.8,5.5-2.5s2.1-4.1,2.1-7.3-.7-5.7-2.1-7.3-3.2-2.4-5.5-2.4-4.1.8-5.5,2.4c-1.4,1.6-2.1,4-2.1,7.3s.7,5.7,2.1,7.3c1.3,1.7,3.2,2.5,5.5,2.5m0,5.8c-3.1,0-5.8-.6-8.1-1.9-2.3-1.3-4.1-3.1-5.3-5.4-1.3-2.3-1.9-5.1-1.9-8.3s.6-5.9,1.9-8.3c1.3-2.3,3-4.1,5.3-5.4s5-1.9,8.1-1.9,5.8.6,8.1,1.9c2.3,1.3,4.1,3.1,5.3,5.4,1.3,2.3,1.9,5.1,1.9,8.3s-.6,5.9-1.9,8.3c-1.3,2.3-3,4.2-5.3,5.4-2.3,1.3-5,1.9-8.1,1.9"></path>
    <path class="cls-1" d="m99.9,37.7c2.3,0,4.1-.8,5.5-2.5s2.1-4.1,2.1-7.3-.7-5.7-2.1-7.3c-1.4-1.6-3.2-2.4-5.5-2.4s-4.1.8-5.5,2.4c-1.4,1.6-2.1,4-2.1,7.3s.7,5.7,2.1,7.3c1.4,1.7,3.2,2.5,5.5,2.5m0,5.8c-3.1,0-5.8-.6-8.1-1.9-2.3-1.3-4.1-3.1-5.3-5.4-1.3-2.3-1.9-5.1-1.9-8.3s.6-5.9,1.9-8.3c1.3-2.3,3-4.1,5.3-5.4,2.3-1.3,5-1.9,8.1-1.9s5.8.6,8.1,1.9,4.1,3.1,5.3,5.4c1.3,2.3,1.9,5.1,1.9,8.3s-.6,5.9-1.9,8.3c-1.3,2.3-3,4.2-5.3,5.4-2.3,1.3-5,1.9-8.1,1.9"></path>
    <path class="cls-1" d="m134.2,38c4.9,0,7.3-3.3,7.4-9.9,0-3.7-.6-6.5-1.9-8.2-1.3-1.7-3.1-2.6-5.6-2.6-2.2,0-3.9.9-5.2,2.6s-1.9,4.3-1.9,7.7.6,5.9,1.9,7.7c1.3,1.8,3.1,2.7,5.3,2.7m-1.7,5.5c-4,0-7.1-1.5-9.3-4.4-2.3-2.9-3.4-6.8-3.4-11.6s1.1-8.5,3.4-11.4c2.3-2.9,5.4-4.3,9.3-4.3,4.3,0,7.3,1.5,9.1,4.6-.2-1.8-.3-3.5-.3-5.2V1.4l7.2-.5v42h-6.3l-.8-4.1c-.3.5-.6.9-.9,1.3-.3.4-.7.8-1.2,1.2-.5.5-1.1.8-1.7,1.1-.6.3-1.4.5-2.3.7-.7.3-1.7.4-2.8.4"></path>
    <path class="cls-1" d="m169.2,43.5c-4.6,0-8.2-1.4-10.8-4.1-2.6-2.8-3.9-6.7-3.9-11.8s1.4-8.8,4.1-11.6c2.7-2.7,6.3-4.1,10.7-4.1,3.5,0,6.5.8,9,2.3l-1.7,5.2c-2.5-1.3-4.8-2-7-2-2.4,0-4.4.9-5.8,2.6-1.4,1.7-2.1,4.3-2.1,7.6s.7,6,2.1,7.7c1.4,1.8,3.4,2.6,5.9,2.6s5.2-.8,7.6-2.3l.7,5.5c-1.3.8-2.6,1.5-3.9,1.8-1.4.4-3,.6-4.9.6"></path>
    <path class="cls-1" d="m319.6,43.5c-4.6,0-8.2-1.4-10.8-4.1-2.6-2.8-3.9-6.7-3.9-11.8s1.4-8.8,4.1-11.6c2.7-2.7,6.3-4.1,10.7-4.1,3.5,0,6.5.8,9,2.3l-1.7,5.2c-2.5-1.3-4.8-2-7-2-2.4,0-4.4.9-5.8,2.6-1.4,1.7-2.1,4.3-2.1,7.6s.7,6,2.1,7.7c1.4,1.8,3.4,2.6,5.9,2.6s5.2-.8,7.6-2.3l.7,5.5c-1.3.8-2.6,1.5-3.9,1.8-1.4.4-3.1.6-4.9.6"></path>
    <path class="cls-1" d="m183.8,42.9V12.6h6.1l.9,4.6c2-3.2,4.9-4.8,8.6-4.8.8,0,1.4,0,1.9.1l-.1,6c-.7-.1-1.5-.2-2.3-.2-2.7,0-4.7.7-6,2.1-1.3,1.4-2,3.4-2,5.9v16.4h-7.1v.2h0Z"></path>
    <path class="cls-1" d="m215.5,38.3c1.7,0,3.1-.4,4.4-1.2,1.2-.8,2.1-1.8,2.7-2.9v-5.8c-.1,0-.5,0-1.4.1s-1.4.1-1.5.1c-2.9.3-5.1.8-6.4,1.7-1.4.8-2,2.2-2,4.1,0,1.3.4,2.3,1.1,3,.6.6,1.7.9,3.1.9m-1.9,5.2c-2.8,0-5.1-.8-6.8-2.3-1.7-1.6-2.6-3.8-2.6-6.7,0-3.1,1-5.5,3.1-7s5.2-2.5,9.3-2.9c.6-.1,1.2-.1,1.8-.2.7-.1,1.4-.1,2.2-.2.8-.1,1.5-.1,2-.2v-1.6c0-1.8-.4-3.2-1.3-4-.8-.8-2.1-1.3-3.9-1.3-2.5,0-5.5.7-9.1,2.1,0-.1-.3-.9-.9-2.5-.6-1.6-.9-2.4-.9-2.5,3.6-1.5,7.4-2.3,11.6-2.3s7.1.9,8.9,2.7c1.9,1.8,2.8,4.6,2.8,8.6v19.8h-5.4c0-.1-.2-.7-.6-1.8-.4-1.2-.6-1.8-.6-1.8-1.5,1.5-3,2.6-4.4,3.2-1.4.5-3.2.9-5.2.9"></path>
    <path class="cls-1" d="m345.7,38.3c1.7,0,3.1-.4,4.4-1.2,1.2-.8,2.1-1.8,2.7-2.9v-5.8c-.1,0-.5,0-1.4.1s-1.4.1-1.5.1c-2.9.3-5.1.8-6.4,1.7-1.4.8-2,2.2-2,4.1,0,1.3.4,2.3,1.1,3,.7.6,1.7.9,3.1.9m-1.9,5.2c-2.8,0-5.1-.8-6.8-2.3-1.7-1.6-2.6-3.8-2.6-6.7,0-3.1,1-5.5,3.1-7s5.2-2.5,9.3-2.9c.6-.1,1.2-.1,1.8-.2.7-.1,1.4-.1,2.2-.2s1.5-.1,2-.2v-1.6c0-1.8-.4-3.2-1.3-4-.8-.8-2.1-1.3-3.9-1.3-2.5,0-5.5.7-9.1,2.1,0-.1-.3-.9-.9-2.5-.6-1.6-.9-2.4-.9-2.5,3.6-1.5,7.4-2.3,11.6-2.3s7.1.9,8.9,2.7c1.9,1.8,2.8,4.6,2.8,8.6v19.8h-5.4c0-.1-.2-.7-.6-1.8-.4-1.2-.6-1.8-.6-1.8-1.5,1.5-3,2.6-4.4,3.2-1.4.5-3.2.9-5.2.9"></path>
    <path class="cls-1" d="m239,42.9v-25.5h-4.8l.5-4.2,4.3-.6v-1.7c0-1.8.2-3.4.5-4.7s.9-2.4,1.7-3.4c.8-.9,1.8-1.6,3.1-2.1,1.3-.5,2.9-.7,4.8-.7,1.8,0,3.7.2,5.6.5l-.6,5.4c-1.5-.2-2.7-.3-3.6-.3-1.5,0-2.6.4-3.3,1.1-.7.7-1,2-1,3.7v2.1h7.1v4.8h-7.1v25.5l-7.2.1h0Z"></path>
    <path class="cls-1" d="m271.7,43.3c-2.1,0-3.8-.2-5.1-.7-1.4-.5-2.4-1.3-3.2-2.3-.8-1-1.3-2.3-1.6-3.7-.3-1.4-.5-3.2-.5-5.3v-14.3h-5l.3-3.9,5.2-.5,2.3-8.2h4.4v8.2h7.5v4.4h-7.5v14.5c0,2.3.3,3.9,1,4.9s1.9,1.5,3.7,1.5c1,0,2.2-.1,3.4-.3l.2,5.2s-.3,0-.7.1c-.4.1-.8.2-1.2.2-.4.1-.9.1-1.4.2-.7,0-1.3,0-1.8,0"></path>
    <polygon class="cls-2" points="297.6 31 300.8 28.1 296.5 28.2 297.3 25.4 291.1 30.6 294.9 20.5 291.7 22.7 289.6 17.6 287.5 22.7 284.3 20.5 288.1 30.8 281.8 25.4 282.5 28.2 278.2 28.1 281.4 31 279 32.5 288.3 33 289 33.1 289.1 33.5 285.9 35.3 293.3 35.3 290.1 33.5 290.2 33.1 290.7 33 300.1 32.5 297.6 31"></polygon>
  </g>
</svg>
